<svg xmlns="http://www.w3.org/2000/svg" xmlns:xlink="http://www.w3.org/1999/xlink" viewBox="0 0 70.21 80.19"><defs><style>.cls-1,.cls-3{fill:#fada79;}.cls-2{fill:#ffe18a;stroke:#fff;}.cls-2,.cls-9{stroke-width:0.5px;}.cls-3{stroke:#f1f2c1;stroke-width:0.25px;}.cls-3,.cls-9{stroke-miterlimit:10;}.cls-4{fill:url(#Degradado_sin_nombre_18);}.cls-5{fill:#0167a5;}.cls-6{fill:#3285b7;}.cls-7{opacity:0.17;}.cls-8{fill:#e1f1f2;}.cls-9{fill:none;stroke:#004065;}.cls-10{fill:#fff;}</style><linearGradient id="Degradado_sin_nombre_18" x1="25.63" y1="32.3" x2="66.48" y2="73.15" gradientUnits="userSpaceOnUse"><stop offset="0" stop-color="#12a5ff"/><stop offset="1" stop-color="#42b7ff"/></linearGradient></defs><g id="frontal"><path class="cls-1" d="M17,75.58H63.23a1,1,0,0,0,1-1V11a1,1,0,0,0-1-1H17Z" transform="translate(-16.98 -10.03)"/><path class="cls-2" d="M17.23,77.2V10.57L34.59,24.31a1,1,0,0,1,.38.78V66.21a1,1,0,0,1-.08.38l-1.08,2.6a1,1,0,0,0-.08.38V89.72a.25.25,0,0,1-.4.2Z" transform="translate(-16.98 -10.03)"/><rect class="cls-3" x="2.77" y="5.1" width="0.73" height="63.16"/><rect class="cls-3" x="5.03" y="6.95" width="0.73" height="62.46"/><rect class="cls-4" x="22.15" y="35.77" width="47.81" height="33.9"/><rect class="cls-5" x="22.28" y="68.26" width="47.69" height="1.41"/><rect class="cls-6" x="23.74" y="68.62" width="9.61" height="0.72"/><g class="cls-7"><polygon class="cls-8" points="22.15 69.67 27.67 69.67 53.52 35.77 22.15 35.77 22.15 69.67"/></g><rect class="cls-9" x="22.15" y="35.77" width="47.81" height="34.02"/><rect class="cls-10" x="65.43" y="68.61" width="0.72" height="0.72"/><rect class="cls-10" x="22.68" y="68.62" width="0.72" height="0.72"/><rect class="cls-10" x="66.88" y="68.61" width="0.72" height="0.72"/><rect class="cls-10" x="68.33" y="68.97" width="1.04" height="0.36"/></g></svg>