<svg xmlns="http://www.w3.org/2000/svg" xmlns:xlink="http://www.w3.org/1999/xlink" viewBox="0 0 62.41 80.19"><defs><style>.cls-1,.cls-3{fill:#fada79;}.cls-2{fill:#ffe18a;}.cls-12,.cls-2{stroke:#fff;}.cls-2,.cls-5{stroke-width:0.5px;}.cls-3{stroke:#f1f2c1;}.cls-10,.cls-12,.cls-3,.cls-4,.cls-5,.cls-6,.cls-7,.cls-8{stroke-miterlimit:10;}.cls-10,.cls-12,.cls-3{stroke-width:0.25px;}.cls-4{fill:#e9e9e9;stroke-width:0.75px;}.cls-4,.cls-5{stroke:#9b9c9c;}.cls-5,.cls-6,.cls-7,.cls-8{fill:none;}.cls-6{stroke:#2ea2e6;}.cls-7{stroke:#0089d9;}.cls-8{stroke:#b3b3b3;}.cls-9{font-size:19.09px;fill:#0089d9;font-family:BellMTItalic, Bell MT;}.cls-10{fill:#f5ffd0;stroke:#a4a4a4;}.cls-11{fill:url(#Degradado_sin_nombre_45);}.cls-12{fill:url(#Degradado_sin_nombre_21);}.cls-13{fill:#8ab4e4;}.cls-14{fill:url(#Degradado_sin_nombre_37);}.cls-15{fill:#64887c;}.cls-16{fill:#3b6144;}.cls-17{fill:#2a4642;}</style><linearGradient id="Degradado_sin_nombre_45" x1="51.99" y1="42" x2="51.99" y2="45.61" gradientUnits="userSpaceOnUse"><stop offset="0" stop-color="#5d99fe"/><stop offset="0.99" stop-color="#8cbdfe"/></linearGradient><linearGradient id="Degradado_sin_nombre_21" x1="68.98" y1="53.69" x2="68.98" y2="58.44" gradientUnits="userSpaceOnUse"><stop offset="0" stop-color="#bce5ff"/><stop offset="0.99" stop-color="#e9f4ff"/></linearGradient><linearGradient id="Degradado_sin_nombre_37" x1="46.13" y1="49.57" x2="57.85" y2="49.57" gradientUnits="userSpaceOnUse"><stop offset="0" stop-color="#4172aa"/><stop offset="0.99" stop-color="#7da0bf"/></linearGradient></defs><g id="frontal"><g id="folder"><path class="cls-1" d="M17,75.58H63.23a1,1,0,0,0,1-1V11a1,1,0,0,0-1-1H17Z" transform="translate(-16.98 -10.03)"/><path class="cls-2" d="M17.23,77.2V10.57L34.59,24.31a1,1,0,0,1,.38.78V66.21a1,1,0,0,1-.08.38l-1.08,2.6a1,1,0,0,0-.08.38V89.72a.25.25,0,0,1-.4.2Z" transform="translate(-16.98 -10.03)"/><rect class="cls-3" x="2.77" y="5.1" width="0.73" height="63.16"/><rect class="cls-3" x="5.03" y="6.95" width="0.73" height="62.46"/></g><polygon class="cls-4" points="23.52 17.99 23.52 69.75 62.04 69.75 62.04 28.87 51.16 17.99 23.52 17.99"/><polygon class="cls-5" points="51.13 28.95 51.13 18.2 61.77 28.95 51.13 28.95"/><line class="cls-6" x1="40.38" y1="23.23" x2="50.86" y2="23.23"/><line class="cls-6" x1="40.38" y1="26.81" x2="50.86" y2="26.81"/><line class="cls-6" x1="40.38" y1="30.64" x2="58.54" y2="30.64"/><line class="cls-6" x1="40.38" y1="34.31" x2="58.24" y2="34.31"/><line class="cls-7" x1="26.99" y1="38.58" x2="58.24" y2="38.58"/><line class="cls-8" x1="26.99" y1="42.25" x2="43.68" y2="42.25"/><line class="cls-8" x1="27.29" y1="45.71" x2="43.68" y2="45.71"/><line class="cls-8" x1="27.29" y1="49.31" x2="43.68" y2="49.31"/><line class="cls-8" x1="27.29" y1="53.06" x2="58.54" y2="53.06"/><line class="cls-8" x1="27.29" y1="56.81" x2="58.24" y2="56.81"/><line class="cls-8" x1="27.29" y1="60.56" x2="58.24" y2="60.56"/><line class="cls-8" x1="27.29" y1="64.45" x2="58.24" y2="64.45"/><text class="cls-9" transform="matrix(1, -0.01, 0.01, 1, 25.81, 34.98)">A</text><rect class="cls-10" x="45.65" y="41.56" width="12.68" height="9.51"/><polygon class="cls-11" points="46.13 44.85 46.13 42 57.84 42 57.84 45.61 46.13 45.26 46.13 44.85"/><path class="cls-12" d="M63.11,55.13s.18-.76,1.29-.62a1.38,1.38,0,0,1,2.53.08s1.61-.64,2.22.74a1.36,1.36,0,0,1,1.46,0,1.64,1.64,0,0,1,1.88-.42,1.81,1.81,0,0,1,2.36.5v2.45l-.29.58-4.89-.23L63.5,55.79l-.39-.16Z" transform="translate(-16.98 -10.03)"/><path class="cls-13" d="M69.13,57.51A1.54,1.54,0,0,1,71,57.29a2.14,2.14,0,0,1,1.48.13c.72.36,1.69.92,1.69.92l-.62.12Z" transform="translate(-16.98 -10.03)"/><rect class="cls-14" x="46.13" y="48.56" width="11.72" height="2.02"/><path class="cls-15" d="M63.11,56.94V55.29s.79-.12,1.1.14a2.3,2.3,0,0,0,1.06.32,2.49,2.49,0,0,1,2.47,1.19,3.14,3.14,0,0,1,1.47.68C69.82,58.18,63.11,56.94,63.11,56.94Z" transform="translate(-16.98 -10.03)"/><path class="cls-16" d="M63.11,57.41v-.55l.69-.14a1.63,1.63,0,0,1,1.53,0,3.54,3.54,0,0,1,.85.63,5.06,5.06,0,0,1,1.77.28,3.87,3.87,0,0,1,2.37.16A5.35,5.35,0,0,1,73,58.2a1.42,1.42,0,0,0,1.85-.32v.71H63.11Z" transform="translate(-16.98 -10.03)"/><path class="cls-17" d="M63.11,57.41v1.18h6.44L68,58.33l-1.67-.14-.71-.11-1-.4A1.7,1.7,0,0,0,63.11,57.41Z" transform="translate(-16.98 -10.03)"/></g></svg>