<svg xmlns="http://www.w3.org/2000/svg" xmlns:xlink="http://www.w3.org/1999/xlink" viewBox="0 0 66.95 80.19"><defs><style>.cls-1,.cls-3{fill:#fada79;}.cls-2{fill:#ffe18a;stroke:#fff;}.cls-2,.cls-4{stroke-width:0.5px;}.cls-3{stroke:#f1f2c1;stroke-width:0.25px;}.cls-3,.cls-4{stroke-miterlimit:10;}.cls-4{stroke:#007ac1;fill:url(#Degradado_sin_nombre_19);}</style><linearGradient id="Degradado_sin_nombre_19" x1="63.07" y1="19.11" x2="63.07" y2="84.06" gradientUnits="userSpaceOnUse"><stop offset="0" stop-color="#0099fb"/><stop offset="1" stop-color="#00a2f5"/></linearGradient></defs><g id="frontal"><g id="folder"><path class="cls-1" d="M17,75.58H63.23a1,1,0,0,0,1-1V11a1,1,0,0,0-1-1H17Z" transform="translate(-16.98 -10.03)"/><path class="cls-2" d="M17.23,77.2V10.57L34.59,24.31a1,1,0,0,1,.38.78V66.21a1,1,0,0,1-.08.38l-1.08,2.6a1,1,0,0,0-.08.38V89.72a.25.25,0,0,1-.4.2Z" transform="translate(-16.98 -10.03)"/><rect class="cls-3" x="2.77" y="5.1" width="0.73" height="63.16"/><rect class="cls-3" x="5.03" y="6.95" width="0.73" height="62.46"/></g><path class="cls-4" d="M63.81,65.56a30.36,30.36,0,0,1-3.39-.83,15.87,15.87,0,0,0-3.71-.16c-5,.35-11,3.49-13.36,8.11a7.54,7.54,0,0,0-.6,5.58,8.42,8.42,0,0,0,6,5.27c7.66,2.13,16.75-2.34,19.45-9.88.77-2.12.35-4.67.34-6.9v-8.1q0-8.1,0-16.2c0-1,0-1.93,0-2.9.75.41,1.57.68,2.32,1.08a23.27,23.27,0,0,1,5,3.63,14,14,0,0,1,3.69,14.52,24,24,0,0,1-2.08,4.37c-.32.55-.63,1.27-.24,1.77a1.08,1.08,0,0,0,1.31.2,2.9,2.9,0,0,0,1-1,23.11,23.11,0,0,0,3.93-16.42c-.92-6.61-5.08-10.42-9.34-15.14a24.93,24.93,0,0,1-5.71-11.21,4.35,4.35,0,0,0-.47-1.26,2.25,2.25,0,0,0-2.9-.73c-1.61.91-1.39,3.07-1.31,4.64.14,2.68.22,5.37.28,8.06.14,5.88,0,11.75,0,17.63,0,5,.11,10-.14,15A4.49,4.49,0,0,1,63.81,65.56Z" transform="translate(-16.98 -10.03)"/></g></svg>