<svg id="Capa_1" data-name="Capa 1" xmlns="http://www.w3.org/2000/svg" viewBox="0 0 31.45 32.44"><defs><style>.cls-1{fill:#d9b46c;}</style></defs><path class="cls-1" d="M25.76,20.33h7.86c.58,0,.6,0,.6.66q0,6.87,0,13.75c0,.47-.06.52-.55.45-1.9-.26-3.8-.55-5.71-.81l-7.69-1c-.87-.12-1.74-.27-2.61-.39-.34-.05-.34-.27-.34-.52V25.26c0-1.47,0-2.94,0-4.41,0-.4.1-.53.52-.52C20.45,20.34,23.1,20.34,25.76,20.33Z" transform="translate(-2.78 -2.78)"/><path class="cls-1" d="M25.72,17.66h-7.9c-.54,0-.54,0-.54-.53,0-3.84,0-7.69,0-11.54,0-.41.15-.52.52-.57,2.78-.38,5.56-.78,8.33-1.17l7.65-1.06c.39,0,.41.16.41.45V17.1c0,.55,0,.56-.56.56Z" transform="translate(-2.78 -2.78)"/><path class="cls-1" d="M9.21,20.34c2,0,3.93,0,5.9,0,.38,0,.5.11.5.5,0,3.84,0,7.67,0,11.51,0,.33-.06.5-.45.44-2.35-.35-4.7-.68-7-1l-4.72-.65c-.61-.09-.61-.09-.61-.69V20.88c0-.54,0-.54.54-.54Z" transform="translate(-2.78 -2.78)"/><path class="cls-1" d="M15.58,5.25c0,.15,0,.29,0,.44V17.11c0,.54,0,.55-.53.55H3.32c-.53,0-.54,0-.54-.53,0-3.2,0-6.39,0-9.59,0-.38.08-.56.51-.62,3.09-.42,6.18-.87,9.27-1.31l2.74-.36Z" transform="translate(-2.78 -2.78)"/></svg>