<svg id="Capa_2" data-name="Capa 2" xmlns="http://www.w3.org/2000/svg" viewBox="0 0 41.35 41.35"><defs><style>.cls-1{opacity:0.7;}.cls-2{fill:#78828b;}.cls-3{opacity:0.5;}.cls-4{fill:#fff;}.cls-5,.cls-7{fill:none;stroke-miterlimit:10;stroke-width:3px;}.cls-5{stroke:#f90000;}.cls-6{fill:#1e2021;}.cls-7{stroke:#1e2021;}</style></defs><path class="cls-1" d="M45.92,47.05H5.08V26.63A20.42,20.42,0,0,1,25.5,6.21h0A20.42,20.42,0,0,1,45.92,26.63Z" transform="translate(-4.58 -5.71)"/><path class="cls-2" d="M45.42,46.55H4.58V26.13A20.42,20.42,0,0,1,25,5.71h0A20.42,20.42,0,0,1,45.42,26.13Z" transform="translate(-4.58 -5.71)"/><circle class="cls-3" cx="20.83" cy="20.83" r="15.7"/><circle class="cls-4" cx="20.33" cy="20.33" r="15.7"/><line class="cls-5" x1="20.57" y1="20.33" x2="20.57" y2="30.8"/><circle class="cls-6" cx="20.57" cy="20.33" r="3.45"/><line class="cls-7" x1="22.2" y1="18.76" x2="30.01" y2="10.85"/><line class="cls-7" x1="11.25" y1="15.64" x2="19.37" y2="19.47"/></svg>