<svg xmlns="http://www.w3.org/2000/svg" viewBox="0 0 33.18 24.28"><defs><style>.cls-1{fill:none;}.cls-2{fill:#fff;}</style></defs><g id="system_tray" data-name="system tray"><g id="red"><polygon class="cls-1" points="3.57 1 1 1 1 8.39 3.57 8.39 4.57 8.39 7.11 8.39 7.11 1 4.57 1 3.57 1"/><polygon class="cls-1" points="3.57 1 1 1 1 8.39 3.57 8.39 4.57 8.39 7.11 8.39 7.11 1 4.57 1 3.57 1"/><polygon class="cls-1" points="3.57 1 1 1 1 8.39 3.57 8.39 4.57 8.39 7.11 8.39 7.11 1 4.57 1 3.57 1"/><polygon class="cls-1" points="7.11 8.39 7.11 1 4.57 1 3.57 1 1 1 1 8.39 3.57 8.39 4.57 8.39 7.11 8.39"/><polygon class="cls-1" points="32.18 1 8.11 1 8.11 9.39 4.57 9.39 4.57 16 4.57 16 4.57 19.19 32.18 19.19 32.18 1"/><polygon class="cls-1" points="32.18 1 8.11 1 8.11 9.39 4.57 9.39 4.57 16 4.57 16 4.57 19.19 32.18 19.19 32.18 1"/><polygon class="cls-1" points="7.11 8.39 7.11 1 4.57 1 3.57 1 1 1 1 8.39 3.57 8.39 4.57 8.39 7.11 8.39"/><path class="cls-2" d="M34,24.68V4.48H.83v9.4H4.4v10.8h0v3.19h1V24.68H18.5v2.84H14.8a.63.63,0,0,0,0,1.25h8.05a.63.63,0,0,0,0-1.25H19.5V24.68ZM4.4,12.88H1.83V5.48H7.94v7.4H4.4Zm1,10.8v-3.2h0v-6.6H8.94V5.48H33v18.2Z" transform="translate(-0.83 -4.48)"/></g></g></svg>