<svg id="Capa_2" data-name="Capa 2" xmlns="http://www.w3.org/2000/svg" xmlns:xlink="http://www.w3.org/1999/xlink" viewBox="0 0 45.83 34.56"><defs><style>.cls-1{fill:#f5ffd0;stroke:#a4a4a4;}.cls-1,.cls-3{stroke-miterlimit:10;stroke-width:0.75px;}.cls-2{fill:url(#Degradado_sin_nombre_45);}.cls-3{stroke:#fff;fill:url(#Degradado_sin_nombre_21);}.cls-4{fill:#8ab4e4;}.cls-5{fill:url(#Degradado_sin_nombre_37);}.cls-6{fill:#64887c;}.cls-7{fill:#3b6144;}.cls-8{fill:#2a4642;}</style><linearGradient id="Degradado_sin_nombre_45" x1="22.89" y1="1.94" x2="22.89" y2="14.78" gradientUnits="userSpaceOnUse"><stop offset="0" stop-color="#5d99fe"/><stop offset="0.99" stop-color="#8cbdfe"/></linearGradient><linearGradient id="Degradado_sin_nombre_21" x1="25.02" y1="14.26" x2="25.02" y2="31.12" gradientUnits="userSpaceOnUse"><stop offset="0" stop-color="#bce5ff"/><stop offset="0.99" stop-color="#e9f4ff"/></linearGradient><linearGradient id="Degradado_sin_nombre_37" x1="2.06" y1="28.86" x2="43.72" y2="28.86" gradientUnits="userSpaceOnUse"><stop offset="0" stop-color="#4172aa"/><stop offset="0.99" stop-color="#7da0bf"/></linearGradient></defs><rect class="cls-1" x="0.38" y="0.38" width="45.08" height="33.81"/><polygon class="cls-2" points="2.06 12.07 2.06 1.94 43.72 1.94 43.72 14.78 2.06 13.52 2.06 12.07"/><path class="cls-3" d="M4.15,19.38s.66-2.7,4.6-2.21c0,0,4.29-6.74,9,.29,0,0,5.71-2.27,7.86,2.63,0,0,2.07-1.64,5.22,0,0,0,2.79-3.27,6.65-1.5,0,0,5.1-2.83,8.41,1.78v8.71l-1,2-17.37-.81L5.53,21.72l-1.38-.57Z" transform="translate(-2.08 -6.4)"/><path class="cls-4" d="M25.57,27.85a5.42,5.42,0,0,1,6.56-.78,7.73,7.73,0,0,1,5.28.43c2.53,1.28,6,3.29,6,3.29l-2.21.42Z" transform="translate(-2.08 -6.4)"/><rect class="cls-5" x="2.06" y="25.27" width="41.66" height="7.18"/><path class="cls-6" d="M4.15,25.82V19.93s2.82-.43,3.91.52,3.77,1.13,3.77,1.13,6-.93,8.78,4.24a10.93,10.93,0,0,1,5.25,2.42C28,30.22,4.15,25.82,4.15,25.82Z" transform="translate(-2.08 -6.4)"/><path class="cls-7" d="M4.15,27.48V25.54L6.62,25s2.9-1.57,5.42,0a13.56,13.56,0,0,1,3,2.24s4-.05,6.28,1a13.77,13.77,0,0,1,8.42.57,19.18,19.18,0,0,1,9.42,1.47c4.32,2.09,6.61-1.14,6.61-1.14v2.52H4.15Z" transform="translate(-2.08 -6.4)"/><path class="cls-8" d="M4.15,27.48v4.19H27.07l-5.52-.9-5.94-.53-2.52-.38L9.62,28.44S7.71,26.63,4.15,27.48Z" transform="translate(-2.08 -6.4)"/></svg>