<svg id="Capa_2" data-name="Capa 2" xmlns="http://www.w3.org/2000/svg" xmlns:xlink="http://www.w3.org/1999/xlink" viewBox="0 0 46.82 27.37"><defs><style>.cls-1{fill:url(#Degradado_sin_nombre_17);}.cls-2{fill:none;}.cls-3{fill:url(#Degradado_sin_nombre_234);}.cls-4{fill:url(#Degradado_sin_nombre_234-2);}.cls-5{fill:url(#Degradado_sin_nombre_234-3);}.cls-6{fill:#5cff5c;}.cls-7{fill:#333;}</style><linearGradient id="Degradado_sin_nombre_17" x1="2.1" y1="18.84" x2="44.6" y2="18.84" gradientUnits="userSpaceOnUse"><stop offset="0" stop-color="#262626"/><stop offset="1" stop-color="#090909"/></linearGradient><linearGradient id="Degradado_sin_nombre_234" y1="20.42" x2="46.82" y2="20.42" gradientUnits="userSpaceOnUse"><stop offset="0" stop-color="#c7c7c7"/><stop offset="0" stop-color="#f6f6f6" stop-opacity="0.5"/></linearGradient><linearGradient id="Degradado_sin_nombre_234-2" y1="11.83" x2="46.82" y2="11.83" xlink:href="#Degradado_sin_nombre_234"/><linearGradient id="Degradado_sin_nombre_234-3" x1="-0.76" y1="20.08" x2="49.9" y2="20.08" xlink:href="#Degradado_sin_nombre_234"/></defs><rect class="cls-1" x="2.1" y="11.83" width="42.5" height="14.01"/><polygon class="cls-2" points="12.62 3.28 5.63 10.19 42.05 10.19 37.26 3.28 12.62 3.28"/><rect class="cls-2" x="3.28" y="13.47" width="40.26" height="10.62"/><polygon class="cls-3" points="43.54 24.09 3.28 24.09 3.28 13.47 0 13.47 0 27.37 46.82 27.37 46.82 13.47 43.54 13.47 43.54 24.09"/><polygon class="cls-4" points="46.04 10.19 42.05 10.19 5.63 10.19 0.97 10.19 0 11.15 0 13.47 3.28 13.47 43.54 13.47 46.82 13.47 46.82 11.32 46.04 10.19"/><path class="cls-5" d="M47.63,23.53,40.57,13.34H12.86L2.55,23.53l-1,1v2.32H48.41V24.66Zm-40.41,0,7-6.91H38.85l4.79,6.91Z" transform="translate(-1.59 -13.34)"/><rect class="cls-6" x="32.3" y="15.86" width="5.55" height="5.55"/><polygon class="cls-7" points="42.35 10.65 4.53 10.65 13.33 2.1 36.41 2.1 42.35 10.65"/></svg>