<svg id="Capa_2" data-name="Capa 2" xmlns="http://www.w3.org/2000/svg" xmlns:xlink="http://www.w3.org/1999/xlink" viewBox="0 0 33.34 44.15"><defs><style>.cls-1{fill:#e9e9e9;stroke-width:2px;}.cls-1,.cls-2{stroke:#9b9c9c;}.cls-1,.cls-2,.cls-4{stroke-miterlimit:10;}.cls-2{fill:none;}.cls-3{fill:#f5ffd0;}.cls-4{stroke:#007ac1;stroke-width:0.5px;fill:url(#Degradado_sin_nombre_17);}</style><linearGradient id="Degradado_sin_nombre_17" x1="25" y1="14.2" x2="25" y2="40.93" gradientUnits="userSpaceOnUse"><stop offset="0" stop-color="#0099fb"/><stop offset="1" stop-color="#00a2f5"/></linearGradient></defs><polygon class="cls-1" points="1 1.04 1 43.15 32.34 43.15 32.34 9.89 23.49 1.04 1 1.04"/><polygon class="cls-2" points="23.47 9.96 23.47 1.22 32.13 9.96 23.47 9.96"/><circle class="cls-3" cx="24.27" cy="19.96" r="1.02"/><path class="cls-4" d="M25.31,33.31a10.55,10.55,0,0,1-1.4-.34,6.52,6.52,0,0,0-1.53-.06,7,7,0,0,0-5.49,3.33,3.08,3.08,0,0,0-.25,2.3,3.45,3.45,0,0,0,2.45,2.17,6.85,6.85,0,0,0,8-4.06,8.77,8.77,0,0,0,.14-2.85V22.61c.3.17.64.28,1,.45a9.46,9.46,0,0,1,2.07,1.49,5.77,5.77,0,0,1,1.52,6,10.24,10.24,0,0,1-.86,1.8c-.13.23-.26.53-.1.73a.44.44,0,0,0,.54.08,1.15,1.15,0,0,0,.42-.4A9.54,9.54,0,0,0,33.39,26c-.37-2.72-2.09-4.29-3.84-6.23a10.4,10.4,0,0,1-2.35-4.61,2.14,2.14,0,0,0-.19-.52.93.93,0,0,0-1.2-.31c-.66.38-.57,1.27-.54,1.91.06,1.11.09,2.21.12,3.32.05,2.42,0,4.84,0,7.26,0,2.05,0,4.12-.06,6.18A3.28,3.28,0,0,1,25.31,33.31Z" transform="translate(-8.33 -2.9)"/></svg>