<svg id="Capa_2" data-name="Capa 2" xmlns="http://www.w3.org/2000/svg" xmlns:xlink="http://www.w3.org/1999/xlink" viewBox="0 0 32.1 42.92"><defs><style>.cls-1{fill:#e9e9e9;stroke-width:0.75px;}.cls-1,.cls-2{stroke:#9b9c9c;}.cls-1,.cls-2,.cls-3,.cls-4,.cls-5,.cls-7,.cls-9{stroke-miterlimit:10;}.cls-2,.cls-3,.cls-4,.cls-5{fill:none;}.cls-2{stroke-width:0.5px;}.cls-3{stroke:#2ea2e6;}.cls-4{stroke:#0089d9;stroke-width:2px;}.cls-5{stroke:#b3b3b3;}.cls-6{font-size:15.54px;fill:#0089d9;font-family:BellMTItalic, Bell MT;}.cls-7{fill:#f5ffd0;stroke:#a4a4a4;}.cls-7,.cls-9{stroke-width:0.25px;}.cls-8{fill:url(#Degradado_sin_nombre_45);}.cls-9{stroke:#fff;fill:url(#Degradado_sin_nombre_21);}.cls-10{fill:#8ab4e4;}.cls-11{fill:url(#Degradado_sin_nombre_37);}.cls-12{fill:#64887c;}.cls-13{fill:#3b6144;}.cls-14{fill:#2a4642;}</style><linearGradient id="Degradado_sin_nombre_45" x1="23.54" y1="19.97" x2="23.54" y2="22.91" gradientUnits="userSpaceOnUse"><stop offset="0" stop-color="#5d99fe"/><stop offset="0.99" stop-color="#8cbdfe"/></linearGradient><linearGradient id="Degradado_sin_nombre_21" x1="32.5" y1="24.83" x2="32.5" y2="28.69" gradientUnits="userSpaceOnUse"><stop offset="0" stop-color="#bce5ff"/><stop offset="0.99" stop-color="#e9f4ff"/></linearGradient><linearGradient id="Degradado_sin_nombre_37" x1="18.77" y1="26.13" x2="28.31" y2="26.13" gradientUnits="userSpaceOnUse"><stop offset="0" stop-color="#4172aa"/><stop offset="0.99" stop-color="#7da0bf"/></linearGradient></defs><polygon class="cls-1" points="0.38 0.43 0.38 42.55 31.72 42.55 31.72 9.29 22.87 0.43 0.38 0.43"/><polygon class="cls-2" points="22.85 9.35 22.85 0.61 31.5 9.35 22.85 9.35"/><line class="cls-3" x1="14.09" y1="4.69" x2="22.63" y2="4.69"/><line class="cls-3" x1="14.09" y1="7.61" x2="22.63" y2="7.61"/><line class="cls-3" x1="14.09" y1="10.72" x2="28.87" y2="10.72"/><line class="cls-3" x1="14.09" y1="13.71" x2="28.63" y2="13.71"/><line class="cls-4" x1="3.21" y1="17.18" x2="28.63" y2="17.18"/><line class="cls-5" x1="3.21" y1="20.17" x2="16.79" y2="20.17"/><line class="cls-5" x1="3.45" y1="22.98" x2="16.79" y2="22.98"/><line class="cls-5" x1="3.45" y1="25.92" x2="16.79" y2="25.92"/><line class="cls-5" x1="3.45" y1="28.97" x2="28.87" y2="28.97"/><line class="cls-5" x1="3.45" y1="32.02" x2="28.63" y2="32.02"/><line class="cls-5" x1="3.45" y1="35.07" x2="28.63" y2="35.07"/><line class="cls-5" x1="3.45" y1="38.24" x2="28.63" y2="38.24"/><text class="cls-6" transform="translate(2.25 14.26) rotate(-0.75)">A</text><rect class="cls-7" x="18.39" y="19.61" width="10.32" height="7.74"/><polygon class="cls-8" points="18.77 22.29 18.77 19.97 28.31 19.97 28.31 22.91 18.77 22.62 18.77 22.29"/><path class="cls-9" d="M27.73,26s.15-.61,1.05-.5a1.13,1.13,0,0,1,2.06.06s1.31-.52,1.8.61a1.09,1.09,0,0,1,1.19,0,1.34,1.34,0,0,1,1.53-.35,1.47,1.47,0,0,1,1.92.41v2l-.24.47-4-.19-5-2-.31-.13Z" transform="translate(-8.95 -3.51)"/><path class="cls-10" d="M32.63,27.94a1.24,1.24,0,0,1,1.5-.18,1.81,1.81,0,0,1,1.21.1c.58.3,1.37.76,1.37.76l-.51.09Z" transform="translate(-8.95 -3.51)"/><rect class="cls-11" x="18.77" y="25.31" width="9.53" height="1.64"/><path class="cls-12" d="M27.73,27.48V26.13s.64-.1.89.12a1.85,1.85,0,0,0,.86.26,2,2,0,0,1,2,1A2.57,2.57,0,0,1,32.7,28C33.19,28.48,27.73,27.48,27.73,27.48Z" transform="translate(-8.95 -3.51)"/><path class="cls-13" d="M27.73,27.86v-.45l.56-.12a1.34,1.34,0,0,1,1.24,0,3,3,0,0,1,.7.52,4.16,4.16,0,0,1,1.44.22,3.16,3.16,0,0,1,1.92.13,4.41,4.41,0,0,1,2.16.34,1.16,1.16,0,0,0,1.51-.26v.58H27.73Z" transform="translate(-8.95 -3.51)"/><path class="cls-14" d="M27.73,27.86v1H33l-1.26-.21-1.36-.12-.58-.09L29,28.08A1.36,1.36,0,0,0,27.73,27.86Z" transform="translate(-8.95 -3.51)"/></svg>