<svg id="Capa_2" data-name="Capa 2" xmlns="http://www.w3.org/2000/svg" viewBox="0 0 36.66 36.66"><defs><style>.cls-1{fill:#006cc9;}.cls-2{fill:#fff;}</style></defs><circle class="cls-1" cx="18.33" cy="18.33" r="18.33"/><path class="cls-2" d="M28.57,28.19H20.16V26.76a10.45,10.45,0,0,1,.63-4.18,4.43,4.43,0,0,1,2.31-2.09l1.54-.68c1.17-.52,1.75-1.24,1.75-2.18a1.95,1.95,0,0,0-1.95-1.95q-2.22,0-2.22,3.09H14.4A11.11,11.11,0,0,1,16.31,12,9.89,9.89,0,0,1,20,9,10.17,10.17,0,0,1,24.6,7.84a9.91,9.91,0,0,1,7.17,2.82,9.38,9.38,0,0,1,2.91,7q0,5.13-4.17,7.22a4.35,4.35,0,0,0-1.65,1.18A4.86,4.86,0,0,0,28.57,28.19Zm-4.06,3.2a5.46,5.46,0,0,1,5.41,5.44,5.05,5.05,0,0,1-1.58,3.77,5.28,5.28,0,0,1-3.83,1.56A5.4,5.4,0,0,1,20.72,33,5.17,5.17,0,0,1,24.51,31.39Z" transform="translate(-6.67 -6.67)"/></svg>