<svg id="Capa_2" data-name="Capa 2" xmlns="http://www.w3.org/2000/svg" xmlns:xlink="http://www.w3.org/1999/xlink" viewBox="0 0 32.34 43.94"><defs><style>.cls-1{opacity:0.44;}.cls-2{fill:#838b93;}.cls-3{fill:#cad2d9;}.cls-4{fill:#134584;}.cls-5{fill:url(#Degradado_sin_nombre_16);}</style><linearGradient id="Degradado_sin_nombre_16" x1="5.24" y1="13.55" x2="26.83" y2="1.08" gradientUnits="userSpaceOnUse"><stop offset="0" stop-color="#4fe5fe"/><stop offset="1" stop-color="#31bcef"/></linearGradient></defs><g id="Capa_3" data-name="Capa 3"><g id="back"><rect class="cls-1" x="0.2" y="0.2" width="32.14" height="43.74"/><rect class="cls-2" width="32.14" height="43.74"/></g><rect class="cls-1" x="3.8" y="15.12" width="6.79" height="6.79"/><rect class="cls-3" x="3.6" y="14.92" width="6.79" height="6.79"/><rect class="cls-1" x="12.84" y="15.12" width="6.79" height="6.79"/><rect class="cls-3" x="12.64" y="14.92" width="6.79" height="6.79"/><rect class="cls-1" x="3.8" y="24.01" width="6.79" height="6.79"/><rect class="cls-3" x="3.6" y="23.81" width="6.79" height="6.79"/><rect class="cls-1" x="12.84" y="24.01" width="6.79" height="6.79"/><rect class="cls-3" x="12.64" y="23.81" width="6.79" height="6.79"/><rect class="cls-1" x="3.8" y="32.91" width="6.79" height="6.79"/><rect class="cls-3" x="3.6" y="32.71" width="6.79" height="6.79"/><rect class="cls-1" x="12.84" y="32.91" width="6.79" height="6.79"/><rect class="cls-3" x="12.64" y="32.71" width="6.79" height="6.79"/><rect class="cls-1" x="21.88" y="15.12" width="6.79" height="6.79"/><rect class="cls-3" x="21.68" y="14.92" width="6.79" height="6.79"/><rect class="cls-1" x="21.88" y="24.01" width="6.79" height="15.69"/><rect class="cls-4" x="21.68" y="23.81" width="6.79" height="15.69"/><rect class="cls-1" x="3.8" y="4.12" width="24.87" height="6.79"/><rect class="cls-5" x="3.6" y="3.92" width="24.87" height="6.79"/></g></svg>