<svg id="Capa_2" data-name="Capa 2" xmlns="http://www.w3.org/2000/svg" xmlns:xlink="http://www.w3.org/1999/xlink" viewBox="0 0 40.14 42.24"><defs><style>.cls-1{opacity:0.5;}.cls-2{fill:#26ace9;}.cls-3{fill:#fff;}.cls-4{fill:url(#Degradado_sin_nombre_16);}</style><linearGradient id="Degradado_sin_nombre_16" x1="25.64" y1="5.6" x2="25.64" y2="14.52" gradientUnits="userSpaceOnUse"><stop offset="0" stop-color="#0767b9"/><stop offset="1" stop-color="#0961af"/></linearGradient></defs><path class="cls-1" d="M44.18,45.34H8.09a1.78,1.78,0,0,1-1.78-1.78v-29H46v29A1.78,1.78,0,0,1,44.18,45.34Z" transform="translate(-5.81 -3.09)"/><path class="cls-2" d="M43.68,44.84H7.59a1.78,1.78,0,0,1-1.78-1.78V14H45.46v29A1.78,1.78,0,0,1,43.68,44.84Z" transform="translate(-5.81 -3.09)"/><rect class="cls-1" x="13.63" y="14.89" width="4.6" height="4.6"/><rect class="cls-3" x="13.13" y="14.39" width="4.6" height="4.6"/><rect class="cls-1" x="22.38" y="14.89" width="4.6" height="4.6"/><rect class="cls-3" x="21.88" y="14.39" width="4.6" height="4.6"/><rect class="cls-1" x="31.23" y="14.89" width="4.6" height="4.6"/><rect class="cls-3" x="30.73" y="14.39" width="4.6" height="4.6"/><rect class="cls-1" x="13.59" y="23.55" width="4.6" height="4.6"/><rect class="cls-3" x="13.09" y="23.05" width="4.6" height="4.6"/><rect class="cls-1" x="4.82" y="23.55" width="4.6" height="4.6"/><rect class="cls-3" x="4.32" y="23.05" width="4.6" height="4.6"/><rect class="cls-1" x="22.34" y="23.55" width="4.6" height="4.6"/><rect class="cls-3" x="21.84" y="23.05" width="4.6" height="4.6"/><rect class="cls-1" x="31.18" y="23.55" width="4.6" height="4.6"/><rect class="cls-3" x="30.68" y="23.05" width="4.6" height="4.6"/><rect class="cls-1" x="4.83" y="32.22" width="4.6" height="4.6"/><rect class="cls-3" x="4.33" y="31.72" width="4.6" height="4.6"/><rect class="cls-1" x="13.59" y="32.22" width="4.6" height="4.6"/><rect class="cls-3" x="13.09" y="31.72" width="4.6" height="4.6"/><rect class="cls-1" x="22.43" y="32.22" width="4.6" height="4.6"/><rect class="cls-3" x="21.93" y="31.72" width="4.6" height="4.6"/><path class="cls-1" d="M46,14.52H6.31V6.84A1.24,1.24,0,0,1,7.55,5.6H44.72A1.24,1.24,0,0,1,46,6.84Z" transform="translate(-5.81 -3.09)"/><path class="cls-4" d="M45.46,14.52H5.81V6.84A1.24,1.24,0,0,1,7.05,5.6H44.22a1.24,1.24,0,0,1,1.24,1.24Z" transform="translate(-5.81 -3.09)"/><rect class="cls-1" x="4.82" y="0.5" width="4.6" height="8.51"/><rect class="cls-2" x="4.32" width="4.6" height="8.51"/><rect class="cls-1" x="31.18" y="0.5" width="4.6" height="8.51"/><rect class="cls-2" x="30.68" width="4.6" height="8.51"/></svg>