<svg id="Capa_1" data-name="Capa 1" xmlns="http://www.w3.org/2000/svg" viewBox="0 0 40 40"><defs><style>.cls-1{fill:#4caf50;}.cls-2{fill:#ffc107;}.cls-3{fill:#f44336;}.cls-4{fill:#dd2c00;}.cls-5{fill:#558b2f;}.cls-6{fill:#f9a825;}.cls-7{fill:#2196f3;}</style></defs><path class="cls-1" d="M14.38,6.47l.29-.15Z" transform="translate(-4 -4)"/><path class="cls-1" d="M16,5.67l.3-.13Z" transform="translate(-4 -4)"/><path class="cls-1" d="M11.22,8.62l.26-.2Z" transform="translate(-4 -4)"/><path class="cls-1" d="M7.21,13.15l.47-.69Z" transform="translate(-4 -4)"/><path class="cls-1" d="M17.92,5l.35-.11Z" transform="translate(-4 -4)"/><path class="cls-1" d="M8.28,11.66c.18-.22.35-.44.54-.66C8.63,11.22,8.46,11.44,8.28,11.66Z" transform="translate(-4 -4)"/><path class="cls-1" d="M9.65,10.09l.41-.42Z" transform="translate(-4 -4)"/><path class="cls-1" d="M12.61,7.57,13,7.33Z" transform="translate(-4 -4)"/><path class="cls-1" d="M19.81,4.45l.21,0Z" transform="translate(-4 -4)"/><path class="cls-1" d="M24,33a9,9,0,0,1-8-4.88h0L7.16,13.26l8.22,8.16h0L7.16,13.26h0a20,20,0,0,0,16,30.7L26,32.76A8.94,8.94,0,0,1,24,33Z" transform="translate(-4 -4)"/><path class="cls-1" d="M21.77,4.13l.41,0Z" transform="translate(-4 -4)"/><path class="cls-2" d="M41.85,15,30.42,17.7a9,9,0,0,1,1.66,10.24h0l-.07.13a5.54,5.54,0,0,1-.3.53L23.16,44H24A20,20,0,0,0,41.85,15Z" transform="translate(-4 -4)"/><path class="cls-2" d="M32.06,5.7l-.7-.29Z" transform="translate(-4 -4)"/><path class="cls-2" d="M34.2,6.81c-.4-.23-.8-.45-1.21-.66C33.4,6.36,33.8,6.58,34.2,6.81Z" transform="translate(-4 -4)"/><path class="cls-2" d="M28.15,4.44l-.44-.08Z" transform="translate(-4 -4)"/><path class="cls-2" d="M35.62,7.74c-.28-.2-.57-.4-.87-.59C35.05,7.34,35.34,7.54,35.62,7.74Z" transform="translate(-4 -4)"/><path class="cls-2" d="M26.34,4.15l-.52-.06Z" transform="translate(-4 -4)"/><path class="cls-2" d="M30.37,5.05l-.61-.2Z" transform="translate(-4 -4)"/><path class="cls-2" d="M38.72,10.49A20.28,20.28,0,0,0,36,8,20.28,20.28,0,0,1,38.72,10.49Z" transform="translate(-4 -4)"/><path class="cls-2" d="M41.84,15h0a20.22,20.22,0,0,0-3.05-4.42A19.84,19.84,0,0,1,41.84,15Z" transform="translate(-4 -4)"/><path class="cls-3" d="M15.38,21.42A9,9,0,0,1,24,15H41.84a19.84,19.84,0,0,0-3-4.42l-.08-.09A20.28,20.28,0,0,0,36,8l-.35-.26c-.28-.2-.57-.4-.87-.59l-.55-.34c-.4-.23-.8-.45-1.21-.66s-.61-.31-.93-.45l-.7-.29-1-.36-.61-.2c-.53-.16-1.06-.3-1.61-.41l-.44-.08c-.45-.09-.91-.16-1.37-.21l-.52-.06C25.22,4,24.61,4,24,4s-1.22,0-1.82.09l-.41,0c-.59.07-1.17.15-1.75.27l-.21,0c-.52.11-1,.24-1.54.39L17.92,5a16.93,16.93,0,0,0-1.6.59l-.3.13c-.46.2-.91.41-1.35.65l-.29.15c-.49.27-1,.55-1.41.86l-.36.24c-.39.27-.77.55-1.13.85l-.26.2c-.4.34-.79.69-1.16,1.05l-.41.42c-.29.3-.57.6-.83.91s-.36.44-.54.66-.41.53-.6.8l-.47.69-.07.11h0Z" transform="translate(-4 -4)"/><path class="cls-4" d="M15.38,21.42,7.16,13.26,16,28.13h0A8.9,8.9,0,0,1,15,24,9.15,9.15,0,0,1,15.38,21.42Z" transform="translate(-4 -4)"/><path class="cls-5" d="M31.72,28.6A9,9,0,0,1,26,32.76L23.17,44v0Z" transform="translate(-4 -4)"/><path class="cls-5" d="M32.09,27.94h0l-.06.13Z" transform="translate(-4 -4)"/><path class="cls-6" d="M41.84,15H24a9,9,0,0,1,6.42,2.7L41.85,15h0Z" transform="translate(-4 -4)"/><circle class="cls-7" cx="20" cy="20" r="7"/></svg>