<svg xmlns="http://www.w3.org/2000/svg" viewBox="0 0 35.55 29.96"><defs><style>.cls-1{fill:none;}.cls-2{fill:#f6f6f6;}</style></defs><g id="system_tray" data-name="system tray"><g id="sound"><polygon class="cls-1" points="2.21 10.89 2.21 19.76 6.47 19.76 11.13 24.54 11.13 6.11 6.47 10.89 2.21 10.89"/><path class="cls-2" d="M12.61,6.71,12.35,7,6.76,12.7H1.22V26H6.76l5.59,5.73.26.26,2,2V4.72Zm-.26,21.85L7.69,23.78H3.43V14.91H7.69l4.66-4.77Z" transform="translate(-1.22 -4.02)"/><path class="cls-2" d="M20.57,25.49l-1.43-1.68a6.31,6.31,0,0,0,2.18-4.38A6.77,6.77,0,0,0,19.1,14.2l1.54-1.58a8.9,8.9,0,0,1,2.88,6.93A8.43,8.43,0,0,1,20.57,25.49Z" transform="translate(-1.22 -4.02)"/><path class="cls-2" d="M25,30l-1.43-1.67a12.42,12.42,0,0,0,4.11-7.09,11.94,11.94,0,0,0-4-11.45l1.42-1.7a14.19,14.19,0,0,1,4.77,13.56A14.55,14.55,0,0,1,25,30Z" transform="translate(-1.22 -4.02)"/><path class="cls-2" d="M32.07,33.73l-1.82-1.24c4.89-7.16,6.59-19.08.09-27.08L32.05,4C39.22,12.85,37.41,25.92,32.07,33.73Z" transform="translate(-1.22 -4.02)"/></g></g></svg>