<svg xmlns="http://www.w3.org/2000/svg" viewBox="0 0 34.87 34.38"><defs><style>.cls-1{fill:none;stroke:#f6f6f6;stroke-miterlimit:10;stroke-width:2px;}</style></defs><g id="icons_windows"><g id="Settings"><polygon class="cls-1" points="7.07 11.31 4.21 7.46 7.72 3.9 11.93 6.85 13.99 6.04 14.96 1 20.18 1 20.79 6.16 23.22 7.05 27.18 3.92 30.89 7.75 27.98 11.58 28.91 13.85 33.87 14.62 33.87 19.78 28.92 20.55 28.04 22.57 30.9 27.12 27.3 30.49 23.43 27.61 20.87 28.59 20.19 33.38 14.96 33.38 14.26 28.53 11.93 27.27 7.88 30.49 4.21 26.96 7.18 22.81 6.19 20.49 1 19.52 1 14.56 6.18 13.9 7.07 11.31"/><circle class="cls-1" cx="17.44" cy="17.73" r="5.88"/></g></g></svg>