<svg id="Capa_2" data-name="Capa 2" xmlns="http://www.w3.org/2000/svg" xmlns:xlink="http://www.w3.org/1999/xlink" viewBox="0 0 33.34 44.15"><defs><style>.cls-1{fill:#e9e9e9;stroke-width:2px;}.cls-1,.cls-2{stroke:#9b9c9c;}.cls-1,.cls-2,.cls-3,.cls-5{stroke-miterlimit:10;}.cls-2{fill:none;}.cls-11,.cls-3{fill:#f5ffd0;}.cls-3{stroke:#a4a4a4;stroke-width:0.5px;}.cls-4{fill:url(#Degradado_sin_nombre_45);}.cls-5{stroke:#fff;stroke-width:0.25px;fill:url(#Degradado_sin_nombre_21);}.cls-6{fill:#8ab4e4;}.cls-7{fill:url(#Degradado_sin_nombre_37);}.cls-8{fill:#64887c;}.cls-9{fill:#3b6144;}.cls-10{fill:#2a4642;}</style><linearGradient id="Degradado_sin_nombre_45" x1="16.76" y1="17.83" x2="16.76" y2="24.66" gradientUnits="userSpaceOnUse"><stop offset="0" stop-color="#5d99fe"/><stop offset="0.99" stop-color="#8cbdfe"/></linearGradient><linearGradient id="Degradado_sin_nombre_21" x1="25.11" y1="23.88" x2="25.11" y2="32.85" gradientUnits="userSpaceOnUse"><stop offset="0" stop-color="#bce5ff"/><stop offset="0.99" stop-color="#e9f4ff"/></linearGradient><linearGradient id="Degradado_sin_nombre_37" x1="5.68" y1="32.14" x2="27.83" y2="32.14" gradientUnits="userSpaceOnUse"><stop offset="0" stop-color="#4172aa"/><stop offset="0.99" stop-color="#7da0bf"/></linearGradient></defs><polygon class="cls-1" points="1 1.04 1 43.15 32.34 43.15 32.34 9.89 23.49 1.04 1 1.04"/><polygon class="cls-2" points="23.47 9.96 23.47 1.22 32.13 9.96 23.47 9.96"/><rect class="cls-3" x="4.79" y="17" width="23.97" height="17.98"/><polygon class="cls-4" points="5.68 23.22 5.68 17.83 27.83 17.83 27.83 24.66 5.68 23.99 5.68 23.22"/><path class="cls-5" d="M14,26.6s.36-1.43,2.45-1.17c0,0,2.28-3.58,4.79.15,0,0,3-1.2,4.18,1.4a2.58,2.58,0,0,1,2.77,0,3.08,3.08,0,0,1,3.54-.79,3.44,3.44,0,0,1,4.47.94v4.63l-.56,1.09-9.23-.44L14.75,27.85l-.74-.3Z" transform="translate(-8.33 -2.9)"/><path class="cls-6" d="M25.4,31.11a2.88,2.88,0,0,1,3.49-.42,4.16,4.16,0,0,1,2.81.23c1.34.68,3.18,1.75,3.18,1.75l-1.17.22Z" transform="translate(-8.33 -2.9)"/><rect class="cls-7" x="5.68" y="30.24" width="22.15" height="3.82"/><path class="cls-8" d="M14,30V26.9s1.5-.23,2.08.27a4.33,4.33,0,0,0,2,.6A4.68,4.68,0,0,1,22.76,30a5.88,5.88,0,0,1,2.8,1.28C26.7,32.37,14,30,14,30Z" transform="translate(-8.33 -2.9)"/><path class="cls-9" d="M14,30.91v-1l1.32-.28a3.09,3.09,0,0,1,2.88,0,7.15,7.15,0,0,1,1.62,1.19,9.67,9.67,0,0,1,3.33.53,7.34,7.34,0,0,1,4.48.3,10.14,10.14,0,0,1,5,.79,2.69,2.69,0,0,0,3.51-.61v1.34H14Z" transform="translate(-8.33 -2.9)"/><path class="cls-10" d="M14,30.91v2.23H26.2l-2.93-.48-3.16-.28-1.34-.2-1.85-.76A3.21,3.21,0,0,0,14,30.91Z" transform="translate(-8.33 -2.9)"/><circle class="cls-11" cx="24.27" cy="19.96" r="1.02"/></svg>