<svg xmlns="http://www.w3.org/2000/svg" viewBox="0 0 24.75 27.76"><defs><style>.cls-1{fill:#f2f2f2;}</style></defs><g id="icons_windows"><g id="Power"><path class="cls-1" d="M29.87,19.47a10.87,10.87,0,1,1-14-10.37V8.59a11.37,11.37,0,1,0,6.22,0V9.1A10.81,10.81,0,0,1,29.87,19.47Z" transform="translate(-6.63 -4.08)"/><path class="cls-1" d="M22.11,7.55v1a11.37,11.37,0,1,1-6.22,0v-1a12.37,12.37,0,1,0,6.22,0Z" transform="translate(-6.63 -4.08)"/><path class="cls-1" d="M8.13,19.47a10.87,10.87,0,1,0,14-10.37v1a9.87,9.87,0,1,1-6.22,0v-1A10.81,10.81,0,0,0,8.13,19.47Z" transform="translate(-6.63 -4.08)"/><rect class="cls-1" x="11.76" y="1.16" width="1.22" height="6.48"/><path class="cls-1" d="M17.67,8.93v5.94h2.66V4.08H17.67V8.93Zm.76-1.37h1.14v3.83H18.43Z" transform="translate(-6.63 -4.08)"/></g></g></svg>