<svg xmlns="http://www.w3.org/2000/svg" viewBox="0 0 30.16 17.1"><defs><style>.cls-1{fill:#f6f6f6;}</style></defs><g id="icons_windows"><g id="start"><path class="cls-1" d="M5.33,13.83H33.07a1.25,1.25,0,0,0,0-2.5H5.33a1.25,1.25,0,0,0,0,2.5Z" transform="translate(-4.12 -11.33)"/><path class="cls-1" d="M5.33,21.14H33.07a1.25,1.25,0,0,0,0-2.5H5.33a1.25,1.25,0,0,0,0,2.5Z" transform="translate(-4.12 -11.33)"/><path class="cls-1" d="M5.33,28.44H33.07a1.25,1.25,0,0,0,0-2.5H5.33a1.25,1.25,0,0,0,0,2.5Z" transform="translate(-4.12 -11.33)"/></g></g></svg>