<svg xmlns="http://www.w3.org/2000/svg" xmlns:xlink="http://www.w3.org/1999/xlink" viewBox="0 0 70.23 80.19"><defs><style>.cls-1,.cls-3{fill:#fada79;}.cls-2{fill:#ffe18a;stroke:#fff;stroke-width:0.5px;}.cls-3{stroke:#f1f2c1;stroke-width:0.25px;}.cls-3,.cls-4{stroke-miterlimit:10;}.cls-4{stroke:#3170a5;stroke-width:0.75px;fill:url(#Degradado_sin_nombre_17);}</style><linearGradient id="Degradado_sin_nombre_17" x1="46.68" y1="23.36" x2="46.68" y2="68.71" gradientUnits="userSpaceOnUse"><stop offset="0" stop-color="#419ee8"/><stop offset="1" stop-color="#3096e8"/></linearGradient></defs><g id="frontal"><g id="folder"><path class="cls-1" d="M17,75.58H63.23a1,1,0,0,0,1-1V11a1,1,0,0,0-1-1H17Z" transform="translate(-16.98 -10.03)"/><path class="cls-2" d="M17.23,77.2V10.57L34.59,24.31a1,1,0,0,1,.38.78V66.21a1,1,0,0,1-.08.38l-1.08,2.6a1,1,0,0,0-.08.38V89.72a.25.25,0,0,1-.4.2Z" transform="translate(-16.98 -10.03)"/><rect class="cls-3" x="2.77" y="5.1" width="0.73" height="63.16"/><rect class="cls-3" x="5.03" y="6.95" width="0.73" height="62.46"/></g><polygon class="cls-4" points="38.34 23.36 54.94 23.36 54.94 46.28 69.32 46.28 46.64 68.71 24.05 46.03 38.34 46.03 38.34 23.36"/></g></svg>