<svg xmlns="http://www.w3.org/2000/svg" xmlns:xlink="http://www.w3.org/1999/xlink" viewBox="0 0 67.97 80.19"><defs><style>.cls-1,.cls-3{fill:#fada79;}.cls-2{fill:#ffe18a;stroke-width:0.5px;}.cls-2,.cls-6{stroke:#fff;}.cls-3{stroke:#f1f2c1;stroke-width:0.25px;}.cls-3,.cls-4,.cls-6{stroke-miterlimit:10;}.cls-4{fill:#f5ffd0;stroke:#a4a4a4;}.cls-4,.cls-6{stroke-width:0.75px;}.cls-5{fill:url(#Degradado_sin_nombre_45);}.cls-6{fill:url(#Degradado_sin_nombre_21);}.cls-7{fill:#8ab4e4;}.cls-8{fill:url(#Degradado_sin_nombre_37);}.cls-9{fill:#64887c;}.cls-10{fill:#3b6144;}.cls-11{fill:#2a4642;}</style><linearGradient id="Degradado_sin_nombre_45" x1="45.03" y1="37.45" x2="45.03" y2="50.29" gradientUnits="userSpaceOnUse"><stop offset="0" stop-color="#5d99fe"/><stop offset="0.99" stop-color="#8cbdfe"/></linearGradient><linearGradient id="Degradado_sin_nombre_21" x1="62.06" y1="53.39" x2="62.06" y2="70.26" gradientUnits="userSpaceOnUse"><stop offset="0" stop-color="#bce5ff"/><stop offset="0.99" stop-color="#e9f4ff"/></linearGradient><linearGradient id="Degradado_sin_nombre_37" x1="24.2" y1="64.37" x2="65.86" y2="64.37" gradientUnits="userSpaceOnUse"><stop offset="0" stop-color="#4172aa"/><stop offset="0.99" stop-color="#7da0bf"/></linearGradient></defs><g id="frontal"><g id="folder"><path class="cls-1" d="M17,75.58H63.23a1,1,0,0,0,1-1V11a1,1,0,0,0-1-1H17Z" transform="translate(-16.98 -10.03)"/><path class="cls-2" d="M17.23,77.2V10.57L34.59,24.31a1,1,0,0,1,.38.78V66.21a1,1,0,0,1-.08.38l-1.08,2.6a1,1,0,0,0-.08.38V89.72a.25.25,0,0,1-.4.2Z" transform="translate(-16.98 -10.03)"/><rect class="cls-3" x="2.77" y="5.1" width="0.73" height="63.16"/><rect class="cls-3" x="5.03" y="6.95" width="0.73" height="62.46"/></g><rect class="cls-4" x="22.51" y="35.88" width="45.08" height="33.81"/><polygon class="cls-5" points="24.2 47.58 24.2 37.45 65.86 37.45 65.86 50.29 24.2 49.03 24.2 47.58"/><path class="cls-6" d="M41.18,58.51s.67-2.7,4.6-2.2c0,0,4.29-6.74,9,.28,0,0,5.71-2.27,7.86,2.63,0,0,2.08-1.63,5.22,0,0,0,2.79-3.27,6.65-1.49,0,0,5.1-2.84,8.42,1.77v8.71l-1,2.05-17.38-.82-22-8.59-1.38-.57Z" transform="translate(-16.98 -10.03)"/><path class="cls-7" d="M62.6,67a5.42,5.42,0,0,1,6.57-.79,7.79,7.79,0,0,1,5.28.43c2.53,1.28,6,3.29,6,3.29l-2.21.42Z" transform="translate(-16.98 -10.03)"/><rect class="cls-8" x="24.2" y="60.77" width="41.66" height="7.18"/><path class="cls-9" d="M41.18,65v-5.9s2.83-.42,3.92.53,3.77,1.12,3.77,1.12,6-.92,8.77,4.25a11,11,0,0,1,5.26,2.41C65.05,69.35,41.18,65,41.18,65Z" transform="translate(-16.98 -10.03)"/><path class="cls-10" d="M41.18,66.62v-2l2.48-.52s2.9-1.57,5.42,0a13.56,13.56,0,0,1,3,2.24s4-.06,6.28,1a13.74,13.74,0,0,1,8.41.57,19.18,19.18,0,0,1,9.42,1.47c4.33,2.1,6.61-1.14,6.61-1.14V70.8H41.18Z" transform="translate(-16.98 -10.03)"/><path class="cls-11" d="M41.18,66.62V70.8H64.1l-5.51-.9-6-.52L50.12,69l-3.47-1.43S44.75,65.76,41.18,66.62Z" transform="translate(-16.98 -10.03)"/></g></svg>